# xmcd
#
# Track frame offsets:
# 150
# 13682
# 25722
# 38941
# 51710
# 62086
# 75103
# 88126
# 103447
# 113559
# 126065
# 137685
# 150322
# 162287
# 174879
# 188392
# 202466
# 216331
# 231681
# 244435
#
# Disc length: 3365 seconds
#
# Revision: 0
# Processed by: cddbd v1.5.2PL0 Copyright (c) Steve Scherf et al.
# Submitted via: Axialis_AX_CDPlayer 2.6
#
DISCID=180d2314
DTITLE=z.Various Artists Coun try - The Roots of Johnny Cash
DYEAR=1900
DGENRE=
TTITLE0=The Carter Family/Wabash Cannonball
TTITLE1=Leadbelly/Goodnoght Irene
TTITLE2=Roy Accuff/Great Speckkeld Bird
TTITLE3=Hank Williams/I'm So Lonesome I Could Cry
TTITLE4=Ted Daffan/Born To Lose
TTITLE5=Jimmie Rodgers/Frankie  And Johnny
TTITLE6=The Carter Family/Keep On The Sunny Side
TTITLE7=Vernon Dalhart/Wreck Of The Old '97
TTITLE8=Monroe Bros/Nine Pound Hammer
TTITLE9=Leon Payne/I Love You Because
TTITLE10=Bob Wills/Time Changes Eevrything
TTITLE11=The Carter Family/Wildwood Flower
TTITLE12=Leadbelly/Rock Island Line
TTITLE13=Jimmiue Rodgers/Waiting For A Train
TTITLE14=The Rouse Brothers/Orange Blossiom Special
TTITLE15=Furry Lewis/Kassie Jones Part One
TTITLE16=Furry Lewis/Kassie Jones Part Two
TTITLE17=The Carter Family/Diamonds In The Rough
TTITLE18=Merle Travis/Dark As A Dungeon
TTITLE19=Leadbely/On A Monday
EXTD=
EXTT0=
EXTT1=
EXTT2=
EXTT3=
EXTT4=
EXTT5=
EXTT6=
EXTT7=
EXTT8=
EXTT9=
EXTT10=
EXTT11=
EXTT12=
EXTT13=
EXTT14=
EXTT15=
EXTT16=
EXTT17=
EXTT18=
EXTT19=
PLAYORDER=
